<svg width="579" height="388" viewBox="0 0 579 388" fill="none" xmlns="http://www.w3.org/2000/svg">
<path d="M397.5 178C452.667 185.5 549.3 229.8 494.5 347" stroke="#9D9D9D" stroke-dasharray="2 4"/>
<path d="M228.5 12.5C350.167 83.1667 529.2 246.6 272 335" stroke="#9D9D9D" stroke-dasharray="2 4"/>
<path d="M55.5 253C59.8333 206.333 56.1 104.2 236.5 157C462 223 529.5 129 528 41" stroke="#9D9D9D" stroke-dasharray="2 4"/>
<circle cx="406" cy="180" r="56" fill="#626780"/>
<path d="M387.746 174.156C388.898 173.196 389.816 172.398 390.5 171.762C391.184 171.114 391.754 170.442 392.21 169.746C392.666 169.05 392.894 168.366 392.894 167.694C392.894 167.082 392.75 166.602 392.462 166.254C392.174 165.906 391.73 165.732 391.13 165.732C390.53 165.732 390.068 165.936 389.744 166.344C389.42 166.74 389.252 167.286 389.24 167.982H386.792C386.84 166.542 387.266 165.45 388.07 164.706C388.886 163.962 389.918 163.59 391.166 163.59C392.534 163.59 393.584 163.956 394.316 164.688C395.048 165.408 395.414 166.362 395.414 167.55C395.414 168.486 395.162 169.38 394.658 170.232C394.154 171.084 393.578 171.828 392.93 172.464C392.282 173.088 391.436 173.844 390.392 174.732H395.702V176.82H386.81V174.948L387.746 174.156ZM397.182 174.444V172.464L403.068 164.04H406.002V172.248H407.586V174.444H406.002V177H403.482V174.444H397.182ZM403.644 166.74L399.954 172.248H403.644V166.74ZM416.228 159.954L411.368 180.258H408.902L413.762 159.954H416.228ZM426.296 165.786L421.508 177H418.952L423.776 166.074H417.62V163.914H426.296V165.786Z" fill="white"/>
<path d="M375.472 201.126C374.632 201.126 373.876 200.982 373.204 200.694C372.532 200.394 372.004 199.974 371.62 199.434C371.236 198.894 371.044 198.264 371.044 197.544H373.24C373.288 198.084 373.498 198.528 373.87 198.876C374.254 199.224 374.788 199.398 375.472 199.398C376.18 199.398 376.732 199.23 377.128 198.894C377.524 198.546 377.722 198.102 377.722 197.562C377.722 197.142 377.596 196.8 377.344 196.536C377.104 196.272 376.798 196.068 376.426 195.924C376.066 195.78 375.562 195.624 374.914 195.456C374.098 195.24 373.432 195.024 372.916 194.808C372.412 194.58 371.98 194.232 371.62 193.764C371.26 193.296 371.08 192.672 371.08 191.892C371.08 191.172 371.26 190.542 371.62 190.002C371.98 189.462 372.484 189.048 373.132 188.76C373.78 188.472 374.53 188.328 375.382 188.328C376.594 188.328 377.584 188.634 378.352 189.246C379.132 189.846 379.564 190.674 379.648 191.73H377.38C377.344 191.274 377.128 190.884 376.732 190.56C376.336 190.236 375.814 190.074 375.166 190.074C374.578 190.074 374.098 190.224 373.726 190.524C373.354 190.824 373.168 191.256 373.168 191.82C373.168 192.204 373.282 192.522 373.51 192.774C373.75 193.014 374.05 193.206 374.41 193.35C374.77 193.494 375.262 193.65 375.886 193.818C376.714 194.046 377.386 194.274 377.902 194.502C378.43 194.73 378.874 195.084 379.234 195.564C379.606 196.032 379.792 196.662 379.792 197.454C379.792 198.09 379.618 198.69 379.27 199.254C378.934 199.818 378.436 200.274 377.776 200.622C377.128 200.958 376.36 201.126 375.472 201.126ZM391.195 191.082V201H389.143V199.83C388.819 200.238 388.393 200.562 387.865 200.802C387.349 201.03 386.797 201.144 386.209 201.144C385.429 201.144 384.727 200.982 384.103 200.658C383.491 200.334 383.005 199.854 382.645 199.218C382.297 198.582 382.123 197.814 382.123 196.914V191.082H384.157V196.608C384.157 197.496 384.379 198.18 384.823 198.66C385.267 199.128 385.873 199.362 386.641 199.362C387.409 199.362 388.015 199.128 388.459 198.66C388.915 198.18 389.143 197.496 389.143 196.608V191.082H391.195ZM395.955 192.54C396.303 192.084 396.777 191.7 397.377 191.388C397.977 191.076 398.655 190.92 399.411 190.92C400.275 190.92 401.061 191.136 401.769 191.568C402.489 191.988 403.053 192.582 403.461 193.35C403.869 194.118 404.073 195 404.073 195.996C404.073 196.992 403.869 197.886 403.461 198.678C403.053 199.458 402.489 200.07 401.769 200.514C401.061 200.946 400.275 201.162 399.411 201.162C398.655 201.162 397.983 201.012 397.395 200.712C396.807 200.4 396.327 200.016 395.955 199.56V205.716H393.903V191.082H395.955V192.54ZM401.985 195.996C401.985 195.312 401.841 194.724 401.553 194.232C401.277 193.728 400.905 193.35 400.437 193.098C399.981 192.834 399.489 192.702 398.961 192.702C398.445 192.702 397.953 192.834 397.485 193.098C397.029 193.362 396.657 193.746 396.369 194.25C396.093 194.754 395.955 195.348 395.955 196.032C395.955 196.716 396.093 197.316 396.369 197.832C396.657 198.336 397.029 198.72 397.485 198.984C397.953 199.248 398.445 199.38 398.961 199.38C399.489 199.38 399.981 199.248 400.437 198.984C400.905 198.708 401.277 198.312 401.553 197.796C401.841 197.28 401.985 196.68 401.985 195.996ZM408.154 192.54C408.502 192.084 408.976 191.7 409.576 191.388C410.176 191.076 410.854 190.92 411.61 190.92C412.474 190.92 413.26 191.136 413.968 191.568C414.688 191.988 415.252 192.582 415.66 193.35C416.068 194.118 416.272 195 416.272 195.996C416.272 196.992 416.068 197.886 415.66 198.678C415.252 199.458 414.688 200.07 413.968 200.514C413.26 200.946 412.474 201.162 411.61 201.162C410.854 201.162 410.182 201.012 409.594 200.712C409.006 200.4 408.526 200.016 408.154 199.56V205.716H406.102V191.082H408.154V192.54ZM414.184 195.996C414.184 195.312 414.04 194.724 413.752 194.232C413.476 193.728 413.104 193.35 412.636 193.098C412.18 192.834 411.688 192.702 411.16 192.702C410.644 192.702 410.152 192.834 409.684 193.098C409.228 193.362 408.856 193.746 408.568 194.25C408.292 194.754 408.154 195.348 408.154 196.032C408.154 196.716 408.292 197.316 408.568 197.832C408.856 198.336 409.228 198.72 409.684 198.984C410.152 199.248 410.644 199.38 411.16 199.38C411.688 199.38 412.18 199.248 412.636 198.984C413.104 198.708 413.476 198.312 413.752 197.796C414.04 197.28 414.184 196.68 414.184 195.996ZM422.603 201.162C421.667 201.162 420.821 200.952 420.065 200.532C419.309 200.1 418.715 199.5 418.283 198.732C417.851 197.952 417.635 197.052 417.635 196.032C417.635 195.024 417.857 194.13 418.301 193.35C418.745 192.57 419.351 191.97 420.119 191.55C420.887 191.13 421.745 190.92 422.693 190.92C423.641 190.92 424.499 191.13 425.267 191.55C426.035 191.97 426.641 192.57 427.085 193.35C427.529 194.13 427.751 195.024 427.751 196.032C427.751 197.04 427.523 197.934 427.067 198.714C426.611 199.494 425.987 200.1 425.195 200.532C424.415 200.952 423.551 201.162 422.603 201.162ZM422.603 199.38C423.131 199.38 423.623 199.254 424.079 199.002C424.547 198.75 424.925 198.372 425.213 197.868C425.501 197.364 425.645 196.752 425.645 196.032C425.645 195.312 425.507 194.706 425.231 194.214C424.955 193.71 424.589 193.332 424.133 193.08C423.677 192.828 423.185 192.702 422.657 192.702C422.129 192.702 421.637 192.828 421.181 193.08C420.737 193.332 420.383 193.71 420.119 194.214C419.855 194.706 419.723 195.312 419.723 196.032C419.723 197.1 419.993 197.928 420.533 198.516C421.085 199.092 421.775 199.38 422.603 199.38ZM431.832 192.522C432.132 192.018 432.528 191.628 433.02 191.352C433.524 191.064 434.118 190.92 434.802 190.92V193.044H434.28C433.476 193.044 432.864 193.248 432.444 193.656C432.036 194.064 431.832 194.772 431.832 195.78V201H429.78V191.082H431.832V192.522ZM439.082 192.756V198.246C439.082 198.618 439.166 198.888 439.334 199.056C439.514 199.212 439.814 199.29 440.234 199.29H441.494V201H439.874C438.95 201 438.242 200.784 437.75 200.352C437.258 199.92 437.012 199.218 437.012 198.246V192.756H435.842V191.082H437.012V188.616H439.082V191.082H441.494V192.756H439.082Z" fill="white"/>
</svg>
