<svg width="112" height="112" viewBox="0 0 112 112" fill="none" xmlns="http://www.w3.org/2000/svg">
<circle cx="56" cy="56" r="56" fill="#626780"/>
<path d="M37.746 50.156C38.898 49.196 39.816 48.398 40.5 47.762C41.184 47.114 41.754 46.442 42.21 45.746C42.666 45.05 42.894 44.366 42.894 43.694C42.894 43.082 42.75 42.602 42.462 42.254C42.174 41.906 41.73 41.732 41.13 41.732C40.53 41.732 40.068 41.936 39.744 42.344C39.42 42.74 39.252 43.286 39.24 43.982H36.792C36.84 42.542 37.266 41.45 38.07 40.706C38.886 39.962 39.918 39.59 41.166 39.59C42.534 39.59 43.584 39.956 44.316 40.688C45.048 41.408 45.414 42.362 45.414 43.55C45.414 44.486 45.162 45.38 44.658 46.232C44.154 47.084 43.578 47.828 42.93 48.464C42.282 49.088 41.436 49.844 40.392 50.732H45.702V52.82H36.81V50.948L37.746 50.156ZM47.1819 50.444V48.464L53.0679 40.04H56.0019V48.248H57.5859V50.444H56.0019V53H53.4819V50.444H47.1819ZM53.6439 42.74L49.9539 48.248H53.6439V42.74ZM66.2283 35.954L61.3683 56.258H58.9023L63.7623 35.954H66.2283ZM76.2962 41.786L71.5082 53H68.9522L73.7762 42.074H67.6202V39.914H76.2962V41.786Z" fill="white"/>
<path d="M25.472 77.126C24.632 77.126 23.876 76.982 23.204 76.694C22.532 76.394 22.004 75.974 21.62 75.434C21.236 74.894 21.044 74.264 21.044 73.544H23.24C23.288 74.084 23.498 74.528 23.87 74.876C24.254 75.224 24.788 75.398 25.472 75.398C26.18 75.398 26.732 75.23 27.128 74.894C27.524 74.546 27.722 74.102 27.722 73.562C27.722 73.142 27.596 72.8 27.344 72.536C27.104 72.272 26.798 72.068 26.426 71.924C26.066 71.78 25.562 71.624 24.914 71.456C24.098 71.24 23.432 71.024 22.916 70.808C22.412 70.58 21.98 70.232 21.62 69.764C21.26 69.296 21.08 68.672 21.08 67.892C21.08 67.172 21.26 66.542 21.62 66.002C21.98 65.462 22.484 65.048 23.132 64.76C23.78 64.472 24.53 64.328 25.382 64.328C26.594 64.328 27.584 64.634 28.352 65.246C29.132 65.846 29.564 66.674 29.648 67.73H27.38C27.344 67.274 27.128 66.884 26.732 66.56C26.336 66.236 25.814 66.074 25.166 66.074C24.578 66.074 24.098 66.224 23.726 66.524C23.354 66.824 23.168 67.256 23.168 67.82C23.168 68.204 23.282 68.522 23.51 68.774C23.75 69.014 24.05 69.206 24.41 69.35C24.77 69.494 25.262 69.65 25.886 69.818C26.714 70.046 27.386 70.274 27.902 70.502C28.43 70.73 28.874 71.084 29.234 71.564C29.606 72.032 29.792 72.662 29.792 73.454C29.792 74.09 29.618 74.69 29.27 75.254C28.934 75.818 28.436 76.274 27.776 76.622C27.128 76.958 26.36 77.126 25.472 77.126ZM41.1953 67.082V77H39.1433V75.83C38.8193 76.238 38.3933 76.562 37.8653 76.802C37.3493 77.03 36.7973 77.144 36.2093 77.144C35.4293 77.144 34.7273 76.982 34.1033 76.658C33.4913 76.334 33.0053 75.854 32.6453 75.218C32.2973 74.582 32.1233 73.814 32.1233 72.914V67.082H34.1573V72.608C34.1573 73.496 34.3793 74.18 34.8233 74.66C35.2673 75.128 35.8733 75.362 36.6413 75.362C37.4093 75.362 38.0153 75.128 38.4593 74.66C38.9153 74.18 39.1433 73.496 39.1433 72.608V67.082H41.1953ZM45.9547 68.54C46.3027 68.084 46.7767 67.7 47.3767 67.388C47.9767 67.076 48.6547 66.92 49.4107 66.92C50.2747 66.92 51.0607 67.136 51.7687 67.568C52.4887 67.988 53.0527 68.582 53.4607 69.35C53.8687 70.118 54.0727 71 54.0727 71.996C54.0727 72.992 53.8687 73.886 53.4607 74.678C53.0527 75.458 52.4887 76.07 51.7687 76.514C51.0607 76.946 50.2747 77.162 49.4107 77.162C48.6547 77.162 47.9827 77.012 47.3947 76.712C46.8067 76.4 46.3267 76.016 45.9547 75.56V81.716H43.9027V67.082H45.9547V68.54ZM51.9847 71.996C51.9847 71.312 51.8407 70.724 51.5527 70.232C51.2767 69.728 50.9047 69.35 50.4367 69.098C49.9807 68.834 49.4887 68.702 48.9607 68.702C48.4447 68.702 47.9527 68.834 47.4847 69.098C47.0287 69.362 46.6567 69.746 46.3687 70.25C46.0927 70.754 45.9547 71.348 45.9547 72.032C45.9547 72.716 46.0927 73.316 46.3687 73.832C46.6567 74.336 47.0287 74.72 47.4847 74.984C47.9527 75.248 48.4447 75.38 48.9607 75.38C49.4887 75.38 49.9807 75.248 50.4367 74.984C50.9047 74.708 51.2767 74.312 51.5527 73.796C51.8407 73.28 51.9847 72.68 51.9847 71.996ZM58.154 68.54C58.502 68.084 58.976 67.7 59.576 67.388C60.176 67.076 60.854 66.92 61.61 66.92C62.474 66.92 63.26 67.136 63.968 67.568C64.688 67.988 65.252 68.582 65.66 69.35C66.068 70.118 66.272 71 66.272 71.996C66.272 72.992 66.068 73.886 65.66 74.678C65.252 75.458 64.688 76.07 63.968 76.514C63.26 76.946 62.474 77.162 61.61 77.162C60.854 77.162 60.182 77.012 59.594 76.712C59.006 76.4 58.526 76.016 58.154 75.56V81.716H56.102V67.082H58.154V68.54ZM64.184 71.996C64.184 71.312 64.04 70.724 63.752 70.232C63.476 69.728 63.104 69.35 62.636 69.098C62.18 68.834 61.688 68.702 61.16 68.702C60.644 68.702 60.152 68.834 59.684 69.098C59.228 69.362 58.856 69.746 58.568 70.25C58.292 70.754 58.154 71.348 58.154 72.032C58.154 72.716 58.292 73.316 58.568 73.832C58.856 74.336 59.228 74.72 59.684 74.984C60.152 75.248 60.644 75.38 61.16 75.38C61.688 75.38 62.18 75.248 62.636 74.984C63.104 74.708 63.476 74.312 63.752 73.796C64.04 73.28 64.184 72.68 64.184 71.996ZM72.6032 77.162C71.6672 77.162 70.8212 76.952 70.0652 76.532C69.3092 76.1 68.7152 75.5 68.2832 74.732C67.8512 73.952 67.6352 73.052 67.6352 72.032C67.6352 71.024 67.8572 70.13 68.3012 69.35C68.7452 68.57 69.3512 67.97 70.1192 67.55C70.8872 67.13 71.7452 66.92 72.6932 66.92C73.6412 66.92 74.4992 67.13 75.2672 67.55C76.0352 67.97 76.6412 68.57 77.0852 69.35C77.5292 70.13 77.7512 71.024 77.7512 72.032C77.7512 73.04 77.5232 73.934 77.0672 74.714C76.6112 75.494 75.9872 76.1 75.1952 76.532C74.4152 76.952 73.5512 77.162 72.6032 77.162ZM72.6032 75.38C73.1312 75.38 73.6232 75.254 74.0792 75.002C74.5472 74.75 74.9252 74.372 75.2132 73.868C75.5012 73.364 75.6452 72.752 75.6452 72.032C75.6452 71.312 75.5072 70.706 75.2312 70.214C74.9552 69.71 74.5892 69.332 74.1332 69.08C73.6772 68.828 73.1852 68.702 72.6572 68.702C72.1292 68.702 71.6372 68.828 71.1812 69.08C70.7372 69.332 70.3832 69.71 70.1192 70.214C69.8552 70.706 69.7232 71.312 69.7232 72.032C69.7232 73.1 69.9932 73.928 70.5332 74.516C71.0852 75.092 71.7752 75.38 72.6032 75.38ZM81.8317 68.522C82.1317 68.018 82.5277 67.628 83.0197 67.352C83.5237 67.064 84.1177 66.92 84.8017 66.92V69.044H84.2797C83.4757 69.044 82.8637 69.248 82.4437 69.656C82.0357 70.064 81.8317 70.772 81.8317 71.78V77H79.7797V67.082H81.8317V68.522ZM89.0819 68.756V74.246C89.0819 74.618 89.1659 74.888 89.3339 75.056C89.5139 75.212 89.8139 75.29 90.2339 75.29H91.4939V77H89.8739C88.9499 77 88.2419 76.784 87.7499 76.352C87.2579 75.92 87.0119 75.218 87.0119 74.246V68.756H85.8419V67.082H87.0119V64.616H89.0819V67.082H91.4939V68.756H89.0819Z" fill="white"/>
</svg>
